<svg width="536" height="214" viewBox="0 0 536 214" fill="none" xmlns="http://www.w3.org/2000/svg">
<path d="M347.358 187.626C347.358 190.907 347.744 193.223 348.516 194.575C349.288 195.926 350.832 196.891 353.148 197.47L352.569 211.076C349.481 211.559 346.779 211.897 344.463 212.09C342.244 212.283 339.252 212.379 335.488 212.379C327.189 212.379 321.689 210.546 318.986 206.879C316.284 203.115 314.933 198.338 314.933 192.548V188.929C312.135 196.842 308.033 202.729 302.629 206.589C297.322 210.449 290.518 212.379 282.219 212.379C272.569 212.379 265.283 210.449 260.361 206.589C255.536 202.729 253.123 196.987 253.123 189.363C253.123 183.091 255.198 178.169 259.348 174.598C263.497 171.028 269.915 168.567 278.6 167.216C271.266 162.005 263.932 157.469 256.597 153.609C262.388 146.275 268.998 140.726 276.429 136.962C283.86 133.102 292.883 131.172 303.498 131.172C318.359 131.172 329.361 134.405 336.502 140.871C343.739 147.24 347.358 157.083 347.358 170.401V187.626ZM306.538 156.649C301.616 156.649 297.273 157.469 293.51 159.11C289.746 160.75 286.369 163.211 283.377 166.492C289.167 165.817 296.405 165.479 305.09 165.479C308.661 165.479 311.17 165.045 312.617 164.176C314.065 163.308 314.789 162.198 314.789 160.847C314.789 159.689 314.065 158.724 312.617 157.952C311.17 157.083 309.143 156.649 306.538 156.649ZM291.338 188.784C296.743 188.784 301.616 187.771 305.959 185.745C310.301 183.621 313.293 180.871 314.933 177.494V173.73C312.617 174.888 310.06 175.805 307.261 176.48C304.463 177.059 301.085 177.638 297.129 178.217L291.917 179.086C286.513 180.147 283.811 181.981 283.811 184.586C283.811 187.385 286.32 188.784 291.338 188.784Z" fill="#2D2D2D"/>
<path d="M520.656 213.103C516.41 213.103 512.791 211.607 509.8 208.616C506.808 205.528 505.312 201.86 505.312 197.614C505.312 193.368 506.808 189.749 509.8 186.758C512.791 183.766 516.41 182.27 520.656 182.27C524.806 182.27 528.376 183.814 531.368 186.903C534.456 189.894 536 193.465 536 197.614C536 201.86 534.456 205.528 531.368 208.616C528.376 211.607 524.806 213.103 520.656 213.103Z" fill="#2D2D2D"/>
<path fill-rule="evenodd" clip-rule="evenodd" d="M447.328 108.174L447.133 106.414L444.785 102.893L440.091 97.6112L436.961 93.6989L434.222 88.613L432.853 86.2656L435.2 86.8525L432.853 82.7446L428.354 79.4191L424.05 75.5069L419.551 73.7463L414.856 72.5727L411.922 73.1595L409.379 75.1156L406.445 73.1595L394.904 69.8341L386.884 66.7043L385.906 67.2911L389.427 69.8341L391.774 72.5727L394.904 78.8323L396.469 80.3972V81.5709L398.034 82.7446H399.794L400.577 83.3314L398.034 85.4832L393.926 89.9823L391.774 92.134L390.405 94.4814L386.297 97.6112L384.732 100.545L383.558 101.132L379.255 104.262L377.494 104.849L374.56 104.262L370.452 105.631L367.322 104.849L365.562 105.631H362.628L359.693 104.262H357.933L351.673 102.306L348.543 100.545H347.37L344.631 98.3937H342.675L338.763 96.4375H335.437L332.699 94.4814L329.764 94.4814L325.852 92.9165H323.505L319.788 91.156H317.05L314.311 89.9823H310.594L307.856 88.4174H304.726L301.596 85.8744L295.923 86.4612L289.077 84.7007H283.795L278.122 81.5709L271.276 74.92L267.168 67.8779L265.212 57.9016L267.168 44.4043L267.755 39.514L266.581 33.0587L263.256 26.2122L257.779 17.6052L253.28 11.3456L247.02 3.52105L243.694 0.782455L236.457 0L241.738 4.3035L247.02 10.7587L252.301 18.9745L258.365 27.7771L261.3 34.0368L261.887 39.514L261.3 45.1867L259.539 52.2288L258.365 56.728L257.779 61.0315L258.365 66.1174L260.713 71.399L263.06 75.7025L268.929 82.549L271.863 86.4612L273.623 90.3735L274.601 93.6989H271.863V95.8507L266.19 96.6331L265.603 98.5893V101.328L263.06 106.023L261.495 110.326L260.322 113.652L256.996 122.845L254.844 126.171L252.693 131.648L250.737 134.778L246.824 138.103L244.086 139.864H241.738L240.565 142.016L235.87 143.972L229.61 146.319L222.177 147.297L220.025 149.449L217.678 152.774V156.1L217.091 158.447L213.766 164.315L210.636 169.793L208.093 172.922H204.767L203.985 174.879L202.811 176.248V177.422L201.051 178.595V179.965L200.464 181.529L199.486 182.312L200.464 187.007L201.833 187.789V189.354L203.985 190.919L205.941 187.789V186.224L207.702 185.442L209.462 182.312L212.396 178.595L217.678 169.793L220.025 165.88L223.937 161.577L227.85 159.034L232.544 156.1L239.978 152.774V159.621V163.729L238.804 168.423L237.239 170.966V172.14L238.804 172.922H237.239V174.879L237.826 176.248V179.182V181.529L240.565 183.094L242.912 183.681L244.086 184.268L245.064 182.312V179.182L245.651 178.008L245.064 175.661V172.14L245.651 169.793V164.315V160.599L246.237 156.1L247.998 152.774L250.737 150.622L254.258 150.231L257.779 150.622L262.473 149.449L265.212 147.297H277.144L278.709 148.471L282.035 147.297H285.36L290.055 143.972L293.967 140.842L294.554 135.756V133.017L298.271 123.628H302.965L307.66 124.41L316.658 129.105L322.331 132.43L328.591 137.125L333.481 142.016L339.936 148.275L345.022 152.187L349.717 154.73L353.825 156.882L358.715 157.86L364.975 158.447H371.039L376.321 156.882L381.406 154.73L385.71 152.187L388.644 151.014L392.948 152.774L397.056 155.513L400.185 159.23L402.924 161.577L403.902 163.924L406.249 167.641L409.184 169.597L411.922 170.379L415.052 169.597L418.377 170.966L423.463 172.922L427.963 173.901L436.57 177.03L441.069 178.791L446.155 180.551L450.067 181.921L454.566 185.051L456.522 186.811H458.283L458.869 185.637L460.826 185.051L464.738 186.811L470.411 188.963L474.714 191.31H478.235L481.561 189.745L482.343 188.963L484.69 189.745L487.625 188.963L488.798 187.398L490.559 185.051V182.703L492.515 183.29L495.058 181.921L496.427 179.769V177.03L497.601 175.857L495.058 175.27L492.906 175.074H491.146L490.559 173.901H487.625H484.69L483.126 172.922H480.387L473.736 170.966L468.846 169.597L467.281 168.228L459.652 165.88L453.392 163.924H450.067L445.568 163.142L437.156 160.599L430.31 159.425L423.072 156.295L419.551 153.361L417.399 148.666L416.421 140.646L414.465 133.8L413.291 128.714L411.922 124.215L409.966 121.867V117.368L411.922 114.238L414.465 111.304L416.617 107.783L418.964 105.631L422.29 106.414L425.811 109.152C426.919 109.283 429.214 109.622 429.527 109.935C429.84 110.248 433.179 111.63 434.809 112.282L437.743 111.891H441.655L443.612 110.913L446.35 109.935L447.328 108.174ZM483.126 181.921H480.974L478.822 182.703L474.714 181.921L468.063 180.551L462.586 178.008L459.652 176.443H461.608L463.76 177.03L465.129 176.248H467.281L471.193 177.03L475.105 178.595C476.149 178.856 478.235 179.456 478.235 179.769C478.235 180.082 479.67 180.812 480.387 181.138L483.126 181.921Z" fill="#0029FF"/>
<path d="M442.047 104.065L443.221 101.522L446.938 106.021L447.329 108.173L446.351 109.934L443.417 110.325L441.069 109.151L440.678 106.608L442.047 104.065Z" fill="#0400BE"/>
<path d="M404.098 74.9202L407.228 77.6588L404.685 77.2676L405.271 79.2237L403.315 78.8325L401.75 81.1799L398.229 78.8325C397.76 78.5195 398.034 80.0062 398.229 80.7886L396.86 79.2237L393.143 73.7466L389.622 69.4431L392.557 72.3773C394.056 72.7033 397.095 73.3553 397.251 73.3553C397.447 73.3553 399.794 74.9202 400.185 74.9202H404.098Z" fill="#02007D"/>
<path d="M432.854 82.7461L428.159 79.2251L432.658 86.2672L435.201 86.854L432.854 82.7461Z" fill="#0400BE"/>
<path d="M413.488 103.285L418.966 105.633L415.836 108.958L414.858 111.306L411.923 114.044L409.967 116.978V121.478L411.923 123.825L413.488 128.911L414.858 134.192L416.814 141.235L417.596 148.472L419.161 152.971L423.269 156.884L432.659 160.013L437.353 160.796L446.156 163.339L453.198 163.926L462.783 166.86L466.695 168.229L468.456 169.794L479.606 172.924H483.322L484.301 173.902H490.756L491.343 175.271H494.472L497.407 176.054L496.429 177.227V179.575L495.451 181.727L492.125 183.487L490.756 182.509L492.125 180.944H489.973L485.865 181.727L483.322 180.944L480.193 181.727L477.063 178.988L473.151 177.227H470.608L466.108 176.054L464.152 177.227H461.218L457.11 174.684L450.459 171.555L443.026 169.012L435.984 166.86L428.355 162.361L419.161 156.884L416.814 153.949L413.88 147.69L411.141 140.061L408.794 135.757L405.273 127.737L401.36 118.348L403.316 108.371L406.055 105.828L413.488 103.285Z" fill="#02007D"/>
<path d="M315.486 124.998L321.354 131.649L307.661 124.216C306.227 124.02 303.24 123.629 302.771 123.629H298.467L294.164 133.214V140.647L285.752 147.298H282.623L279.102 148.668L277.341 147.298L264.822 147.69L266.778 146.516L271.081 142.408L274.016 138.104L277.341 134.779L284.188 126.954L293.381 120.304L298.467 118.739C301.01 118.869 306.214 119.13 306.683 119.13C307.153 119.13 310.009 120.956 311.378 121.869L315.486 124.998Z" fill="#02007D"/>
<path d="M239.977 152.777L250.541 150.625L247.998 153.168L246.041 155.515L245.65 159.428L245.455 162.362V169.795L245.063 171.751V176.446L245.846 178.207L245.063 179.185V182.314L244.281 184.271L242.716 183.488L240.564 183.097L237.826 181.141L237.434 175.859L237.043 174.686L237.434 172.925L238.608 172.729L237.434 172.143L237.043 171.36L238.608 169.013L239.391 166.665L239.977 163.536V159.623V152.777Z" fill="#0400BE"/>
<path d="M310.4 105.436L317.247 112.087L319.594 115.999H309.618L299.25 109.544L293.382 102.697H297.294L310.4 105.436Z" fill="#0400BE"/>
<path d="M494.08 175.074L497.405 176.052L495.058 177.03L495.645 178.595L492.515 180.16L488.798 178.595L483.321 178.986L478.626 177.03L471.976 174.096H463.369L458.283 169.988L450.849 166.858L445.763 167.641L439.699 163.924L428.941 161.186L424.246 159.034L421.116 157.273L416.812 152.579L415.639 145.537L414.661 137.321L417.399 142.015V144.95V149.058L419.16 152.97L422.876 156.687L426.398 158.056L432.462 160.012L439.112 161.186L447.328 163.924H453.197L455.74 164.511L466.694 168.423L468.259 169.988L480.387 173.118H483.321L484.299 174.096H490.559L491.537 175.465L494.08 175.074Z" fill="#0400BE"/>
<path d="M387.276 140.452L383.363 135.171V137.323L375.735 133.997L384.146 141.626L380.234 142.213L383.363 148.668L385.515 147.494H389.819V143.778L387.276 140.452Z" fill="#0400BE"/>
<path d="M288.296 100.351L287.709 97.6123L286.144 98.786L283.014 101.329L276.363 102.698L280.471 103.481L286.731 102.111L288.296 100.351Z" fill="#0400BE"/>
<path d="M198.826 213.102C190.719 213.102 182.468 211.993 174.073 209.773C165.773 207.457 157.957 203.983 150.622 199.351L165.822 178.651C170.261 181.836 175.617 184.345 181.889 186.178C188.162 187.915 193.566 188.784 198.102 188.784C202.444 188.784 205.774 188.205 208.09 187.047C210.502 185.792 211.709 184.2 211.709 182.27C211.709 180.726 211.13 179.519 209.972 178.651C208.814 177.782 207.221 177.348 205.195 177.348C203.94 177.348 202.493 177.396 200.852 177.493C199.308 177.589 198.054 177.686 197.089 177.782C192.07 178.361 186.908 178.651 181.6 178.651C173.011 178.651 166.015 177.059 160.611 173.874C155.303 170.593 152.649 165.285 152.649 157.951C152.649 149.459 156.654 142.897 164.664 138.265C172.673 133.536 184.447 131.172 199.984 131.172C207.607 131.172 215.279 132.281 223 134.501C230.816 136.624 237.716 139.857 243.699 144.199L227.053 160.991C221.552 158.096 216.389 156.069 211.564 154.911C206.835 153.657 202.058 153.029 197.233 153.029C193.856 153.029 190.961 153.705 188.548 155.056C186.135 156.407 184.929 157.951 184.929 159.688C184.929 161.039 185.412 162.101 186.377 162.873C187.438 163.645 188.789 164.031 190.43 164.031C192.07 164.031 194.338 163.886 197.233 163.597C204.278 163.114 209.537 162.873 213.012 162.873C223.048 162.873 230.816 164.562 236.317 167.939C241.818 171.317 244.568 176.48 244.568 183.428C244.568 193.85 240.515 201.426 232.409 206.154C224.302 210.786 213.108 213.102 198.826 213.102Z" fill="#2D2D2D"/>
<path d="M30.8326 175.466C31.6046 179.713 33.4864 183.187 36.478 185.889C39.5661 188.494 43.9087 189.797 49.5059 189.797C53.559 189.797 57.3709 189.025 60.9415 187.481C64.5121 185.84 67.3589 183.573 69.482 180.678C75.9477 183.862 84.5364 187.288 95.2482 190.955C92.2566 197.71 86.8042 203.114 78.891 207.168C71.0743 211.124 60.845 213.102 48.2031 213.102C31.7976 213.102 19.6383 209.339 11.7251 201.812C3.90836 194.188 0 184.2 0 171.848C0 159.785 3.90836 149.99 11.7251 142.462C19.5418 134.935 31.7011 131.172 48.2031 131.172C58.0464 131.172 66.5869 132.812 73.8246 136.093C81.0623 139.374 86.6112 143.958 90.4713 149.845C94.3314 155.635 96.2615 162.294 96.2615 169.821C96.2615 172.33 96.165 174.212 95.972 175.466H30.8326ZM50.2297 153.029C45.4045 153.029 41.4479 153.946 38.3598 155.78C35.2717 157.613 33.1004 160.122 31.8459 163.307H66.0079C64.8498 160.219 62.968 157.758 60.3625 155.925C57.7569 153.995 54.3793 153.029 50.2297 153.029Z" fill="#2D2D2D"/>
<path d="M140.355 153.753C140.258 159.543 140.21 168.422 140.21 180.388C140.21 194.767 140.307 205.189 140.5 211.655L106.338 211.655L106.482 195.298C106.675 177.348 106.772 163.5 106.772 153.753C106.772 144.489 106.675 131.365 106.482 114.38L106.338 98.7467L140.5 98.7467C140.307 112.45 140.21 123.644 140.21 132.33C140.21 141.98 140.258 149.121 140.355 153.753Z" fill="#2D2D2D"/>
<path d="M130.014 128.432V126.697H130.626L131.341 126.391L131.545 125.371L130.626 124.248L129.606 122.513L128.279 122.105L126.646 122.309L126.238 121.697L125.728 120.064V118.839C126.238 118.942 127.3 119.146 127.463 119.146C127.626 119.146 128.483 118.942 128.892 118.839L129.402 118.125L130.014 118.329L131.035 118.023L132.259 117.513V116.084L131.749 114.962L131.341 114.043L130.728 113.533H134.708H139.3L142.464 113.023L145.73 111.288L149.301 109.655L151.24 107.104L154.914 103.532L159.098 99.8585L164.711 96.2868H169.507L173.997 95.3683L181.651 94.1438L186.345 93.5315H190.529L195.121 91.5926L199.203 90.6741L200.836 92.1028L204.407 93.5315L207.367 94.7561L211.143 95.3683L216.857 96.8991H219.102L220.837 97.4093L222.776 98.2257L225.123 99.1441L226.858 100.267L227.776 101.797L230.328 102.716L231.96 103.43H232.981H234.512L236.655 102.716L237.879 101.491L237.063 98.6339L235.226 96.2868L232.675 94.7561L229.919 93.5315L227.47 92.1028L226.042 90.6741L223.388 89.6536L220.123 88.5311L217.98 87.2045H219.817C220.062 87.2045 221.892 87.5446 222.776 87.7147L224.613 88.5311L226.552 89.0413L227.776 89.8577L228.491 91.1844L229.919 91.4905L231.246 92.613L232.369 93.2253L233.797 94.2458L236.042 94.7561L238.185 93.8376V91.1844L237.879 89.0413L235.226 87.7147L233.797 85.9799L230.838 84.143L228.491 82.5102L226.042 80.4693L224.001 79.2447L221.449 78.8365L223.184 76.8976L224.919 76.3873L227.776 77.5099L231.552 78.3263L235.226 79.2447L236.042 80.4693L237.369 81.5918L238.9 82L241.757 81.5918L243.186 80.8775L244.206 80.1631L245.023 79.857L246.043 78.8365V76.8976L245.227 75.2648L246.043 74.1423L247.064 71.1829V68.4276L246.043 64.3456V62.9169H248.084L250.737 61.3862H249.003H245.023L243.696 60.2637V58.9371L246.043 57.5084L248.084 55.8756L249.003 53.6305H247.064C245.397 53.8346 241.92 54.2428 241.349 54.2428C240.777 54.2428 237.573 54.9912 236.042 55.3654L231.348 56.4879L224.919 57.5084H218.184L211.245 56.9981L203.387 58.1207L198.591 60.2637L190.529 61.3862L185.835 62.9169L179.712 64.3456L165.221 65.8763L154.914 68.8358L147.26 72.5095L141.341 73.2238L136.647 72.5095L128.585 67.4071L121.34 63.4272L113.074 58.9371L106.849 52.508L103.175 47.0994L97.7668 39.3438L94.5012 34.6495L91.95 34.0372L90.7254 36.5884L92.9705 40.5683L96.4401 45.6708L100.114 52.508L104.91 58.9371L109.706 64.8559L117.564 71.0808L124.708 75.1628L130.014 78.2242L132.361 82.6123L130.014 87.1024L129.504 92.8171L128.075 94.9602L123.279 96.5929L120.83 98.1236L119.401 99.6544L117.564 100.675V104.145V106.798V109.655L118.074 113.533L119.401 117.513V122.105L120.83 125.779L122.565 126.697L123.279 128.432H126.034H127.463H130.014Z" fill="#0029FF"/>
<path d="M217.368 85.3655L221.246 78.9365L223.899 79.3447L226.756 81.2836L229.614 83.6307L233.696 85.9778L235.124 87.6106L237.88 89.1413L238.186 93.8356L235.941 94.754C235.43 94.5499 234.328 94.1417 234.002 94.1417C233.675 94.1417 233.049 93.6655 232.777 93.4274L230.124 91.5905L228.491 91.1823L227.879 89.7536L226.756 89.1413L224.307 88.2229L220.837 87.1004H217.776L217.368 85.3655Z" fill="#02007D"/>
<path d="M127.973 95.063L129.503 93.022H130.524L129.912 94.6548L130.524 96.1855L129.912 98.0224L129.503 99.7572L127.973 100.676H125.932H124.605L123.176 101.39L121.34 103.023L119.299 103.635H118.482L117.564 104.86V100.676L120.013 99.349L120.829 98.0224L122.462 97.104L123.176 96.6958L127.973 95.063Z" fill="#02007D"/>
<path d="M198.182 77.5102L203.183 72.6119L203.693 72.9181L201.346 78.1225L200.121 83.0209L199.101 87.1028L199.407 90.7765H198.693L195.835 91.2868L190.223 93.6339L189.406 92.6134L192.978 84.6536L198.182 77.5102Z" fill="#0400BE"/>
<path d="M245.94 78.1198V78.7321L245.328 79.6505L244.409 79.9567L244.715 79.0382L245.94 78.1198Z" fill="#0400BE"/>
<path d="M246.859 67.8131L245.941 64.1394L245.635 63.0168L245.328 64.2414L244.92 66.1803L244.512 68.3234L245.533 71.3848L246.553 70.1602L246.961 68.7316L246.859 67.8131Z" fill="#0400BE"/>
<path d="M239.207 59.1397L234.819 58.9356L233.39 59.4459L236.554 60.1602L238.186 60.5684C239.003 60.7385 240.676 61.0786 240.84 61.0786C241.003 61.0786 243.629 61.2147 244.922 61.2827L243.697 60.1602V58.9356L242.472 59.854L239.207 59.1397Z" fill="#0400BE"/>
<path d="M216.749 69.1627C216.704 69.1484 216.671 69.1407 216.652 69.1407L216.749 69.1627C217.275 69.3303 219.433 70.4136 220.53 70.9776L221.958 73.835V77.9169L223.897 76.3862H225.428L227.775 77.5087L232.776 78.6312L235.429 79.2435L236.449 77.5087L238.898 74.7534H240.837V73.835L238.592 71.6919L235.735 72.4063L233.592 70.2633L235.021 68.3243L231.653 69.8551L228.285 68.3243L227.775 66.9977L222.979 71.6919L219.815 69.8551L216.749 69.1627Z" fill="#0400BE"/>
</svg>
